<svg xmlns="http://www.w3.org/2000/svg" xmlns:xlink="http://www.w3.org/1999/xlink" version="1.1" x="0px" y="0px" viewBox="0 0 64 80" enable-background="new 0 0 64 64" xml:space="preserve"><g><path fill="#000000" d="M60.251,41.184c-0.692-0.09-1.473,0.061-2.142,0.304c-4.021,1.46-7.848,3.163-11.854,4.666   c-0.198,0.074-0.426,0.158-0.555,0.309c-1.043,1.229-2.417,1.725-3.957,1.743c-2.492,0.03-4.983,0.113-7.474,0.172   c-1.69,0.04-3.379,0.084-5.069,0.114c-0.427,0.008-0.965-0.468-0.993-0.967c-0.028-0.5,0.313-0.67,0.747-0.713   c0.172-0.017,0.346-0.03,0.519-0.034c2.101-0.054,4.202-0.105,6.303-0.158c2.209-0.055,4.421-0.07,6.628-0.178   c1.543-0.076,2.592-1.224,2.617-2.702c0.027-1.587-1.204-2.787-2.877-2.756c-2.479,0.047-5.615-0.292-8.158-0.686   c-3.024-0.469-4.496-2.017-7.431-2.96c-4.522-1.453-9.15-0.926-13.818-0.83c-0.008-0.325-0.016-0.65-0.024-0.975   c-0.026-1.027-0.525-1.474-1.565-1.45c-2.727,0.062-5.455,0.129-8.182,0.197c-0.168,0.004-0.335,0.025-0.638,0.05   c0.152,1.453,0.256,2.87,0.456,4.274c0.744,5.232,2.568,10.069,5.427,14.511c0.131,0.203,0.459,0.387,0.7,0.393   c0.93,0.025,1.861-0.018,2.792-0.05c0.922-0.032,1.429-0.555,1.408-1.495c-0.006-0.266-0.013-0.533-0.019-0.799   c0.004,0.001,0.008,0.003,0.012,0.004c2.099,0.597,4.187,1.229,6.284,1.834c3.902,1.127,7.782,2.343,11.719,3.333   c3.265,0.821,6.558,0.918,9.662-0.791c6.576-3.621,13.158-7.231,19.729-10.862c0.328-0.181,0.625-0.479,0.843-0.788   C62.082,42.843,61.523,41.349,60.251,41.184z"/><path fill="#000000" d="M52.056,19.847c-1.952-0.638-2.857-3.533-1.628-5.19c0.819-1.105,0.486-1.762-0.228-2.638   c-0.762-0.943-1.495-1.152-2.619-0.581c-1.686,0.848-4.647-0.628-4.961-2.6c-0.238-1.581-1.171-1.59-2.342-1.724   c-1.247-0.152-1.695,0.495-2.028,1.524c-0.333,1.019-2.657,2.219-4.161,2.114c-0.276-0.124-0.809-0.219-1.133-0.533   c-1.152-1.095-1.952-0.409-2.876,0.362c-0.952,0.781-0.886,1.505-0.371,2.514c0.847,1.619-0.733,4.676-2.676,4.923   c-1.171,0.152-1.457,0.705-1.581,1.447l-0.095,1.314c0.019,0.752,0.219,1.343,1.343,1.657c1.895,0.533,3,3.79,1.933,5.275   c-0.667,0.914-0.828,1.628-0.01,2.542c0.8,0.885,1.495,1.695,2.8,0.771c0.362-0.257,0.905-0.276,1.2-0.362   c1.495,0.124,3.619,1.647,3.799,2.704c0.181,1.067,0.524,1.771,1.79,1.809c1.171,0.038,2.095,0.162,2.571-1.362   c0.59-1.904,3.742-2.933,5.285-1.847c1.029,0.733,1.781,0.638,2.676-0.181c0.828-0.762,1.257-1.371,0.609-2.58   c-0.962-1.828,0.352-4.552,2.371-4.894c1.095-0.19,1.552-0.638,1.752-1.457l0.095-1.314C53.494,20.704,53.103,20.19,52.056,19.847z    M46.366,22.206c-0.571,3.541-3.774,6.115-7.412,5.854c-3.648-0.271-6.435-3.29-6.483-6.88l0.087-1.103   c0.571-3.542,3.774-6.115,7.412-5.844c3.648,0.271,6.435,3.28,6.483,6.87L46.366,22.206z"/></g></svg>